<svg xmlns="http://www.w3.org/2000/svg" viewBox="0 0 640 400" role="img" aria-hidden="true" focusable="false">
  <defs>
    <radialGradient id="glow-blue" cx="0.5" cy="0.5" r="0.5">
      <stop offset="0" stop-color="#6478ff" stop-opacity="0.30"/>
      <stop offset="1" stop-color="#6478ff" stop-opacity="0"/>
    </radialGradient>
    <radialGradient id="glow-cyan" cx="0.5" cy="0.5" r="0.5">
      <stop offset="0" stop-color="#22d3ee" stop-opacity="0.26"/>
      <stop offset="1" stop-color="#22d3ee" stop-opacity="0"/>
    </radialGradient>
    <pattern id="dot-grid" width="26" height="26" patternUnits="userSpaceOnUse">
      <circle cx="2" cy="2" r="1.3" fill="#6478ff" fill-opacity="0.16"/>
    </pattern>
  </defs>
  <rect width="640" height="400" fill="url(#dot-grid)"/>
  <circle cx="130" cy="70" r="170" fill="url(#glow-blue)"/>
  <circle cx="525" cy="340" r="190" fill="url(#glow-cyan)"/>
  <path d="M -10 340 C 140 300, 260 380, 400 340 S 620 300, 660 330" fill="none" stroke="#6478ff" stroke-width="1.5" opacity="0.18"/>
  <path d="M -10 365 C 150 330, 280 400, 420 365 S 610 330, 660 355" fill="none" stroke="#22d3ee" stroke-width="1.5" opacity="0.14"/>
  <circle cx="110" cy="120" r="7" fill="#6478ff"/>
  <circle cx="90" cy="280" r="7" fill="#22d3ee"/>
  <circle cx="530" cy="200" r="8" fill="#e70013"/>
  <path d="M 110 120 C 260 90, 380 150, 522 196" fill="none" stroke="#6478ff" stroke-width="4" stroke-linecap="round" opacity="0.65"/>
  <path d="M 90 280 C 260 310, 380 250, 522 204" fill="none" stroke="#22d3ee" stroke-width="4" stroke-linecap="round" opacity="0.65"/>
  <circle cx="320" cy="200" r="34" fill="none" stroke="#6478ff" stroke-width="2" opacity="0.35"/>
  <circle cx="320" cy="200" r="22" fill="none" stroke="#6478ff" stroke-width="4" opacity="0.8"/>
</svg>
