<svg xmlns="http://www.w3.org/2000/svg" viewBox="0 0 640 400" role="img" aria-hidden="true" focusable="false">
  <defs>
    <radialGradient id="glow-blue" cx="0.5" cy="0.5" r="0.5">
      <stop offset="0" stop-color="#00a583" stop-opacity="0.30"/>
      <stop offset="1" stop-color="#00a583" stop-opacity="0"/>
    </radialGradient>
    <radialGradient id="glow-cyan" cx="0.5" cy="0.5" r="0.5">
      <stop offset="0" stop-color="#22d3ee" stop-opacity="0.26"/>
      <stop offset="1" stop-color="#22d3ee" stop-opacity="0"/>
    </radialGradient>
    <pattern id="dot-grid" width="26" height="26" patternUnits="userSpaceOnUse">
      <circle cx="2" cy="2" r="1.3" fill="#00a583" fill-opacity="0.16"/>
    </pattern>
  </defs>
  <rect width="640" height="400" fill="url(#dot-grid)"/>
  <circle cx="130" cy="70" r="170" fill="url(#glow-blue)"/>
  <circle cx="525" cy="340" r="190" fill="url(#glow-cyan)"/>
  <path d="M -10 340 C 140 300, 260 380, 400 340 S 620 300, 660 330" fill="none" stroke="#00a583" stroke-width="1.5" opacity="0.18"/>
  <path d="M -10 365 C 150 330, 280 400, 420 365 S 610 330, 660 355" fill="none" stroke="#22d3ee" stroke-width="1.5" opacity="0.14"/>
  <g transform="translate(280, 200) scale(1.15)"><path d="M 0 -46 L 36 -30 V 8 Q 36 34 0 48 Q -36 34 -36 8 V -30 Z" fill="#00a583" fill-opacity="0.14" stroke="#00a583" stroke-width="2.5"/><path d="M -12 2 L -2 14 L 18 -10" fill="none" stroke="#22d3ee" stroke-width="4" stroke-linecap="round" stroke-linejoin="round"/></g>
  <g transform="translate(372, 236) scale(0.75)"><path d="M 0 -46 L 36 -30 V 8 Q 36 34 0 48 Q -36 34 -36 8 V -30 Z" fill="none" stroke="#0f766e" stroke-width="2.5" stroke-dasharray="6 5" opacity="0.9"/></g>
  <path d="M 440 200 C 470 185, 490 215, 520 200" fill="none" stroke="#22d3ee" stroke-width="3" stroke-linecap="round" opacity="0.5"/>
  <path d="M 440 220 C 470 235, 490 205, 520 220" fill="none" stroke="#0f766e" stroke-width="3" stroke-linecap="round" opacity="0.5"/>
  <text x="490" y="160" text-anchor="middle" font-family="ui-monospace, monospace" font-size="17" fill="#22d3ee" opacity="0.9">403</text>
  <text x="490" y="268" text-anchor="middle" font-family="ui-monospace, monospace" font-size="17" fill="#0f766e" opacity="0.9">403</text>
</svg>
