<svg xmlns="http://www.w3.org/2000/svg" viewBox="0 0 640 400" role="img" aria-hidden="true" focusable="false">
  <defs>
    <radialGradient id="glow-blue" cx="0.5" cy="0.5" r="0.5">
      <stop offset="0" stop-color="#6478ff" stop-opacity="0.30"/>
      <stop offset="1" stop-color="#6478ff" stop-opacity="0"/>
    </radialGradient>
    <radialGradient id="glow-cyan" cx="0.5" cy="0.5" r="0.5">
      <stop offset="0" stop-color="#22d3ee" stop-opacity="0.26"/>
      <stop offset="1" stop-color="#22d3ee" stop-opacity="0"/>
    </radialGradient>
    <pattern id="dot-grid" width="26" height="26" patternUnits="userSpaceOnUse">
      <circle cx="2" cy="2" r="1.3" fill="#6478ff" fill-opacity="0.16"/>
    </pattern>
  </defs>
  <rect width="640" height="400" fill="url(#dot-grid)"/>
  <circle cx="130" cy="70" r="170" fill="url(#glow-blue)"/>
  <circle cx="525" cy="340" r="190" fill="url(#glow-cyan)"/>
  <path d="M -10 340 C 140 300, 260 380, 400 340 S 620 300, 660 330" fill="none" stroke="#6478ff" stroke-width="1.5" opacity="0.18"/>
  <path d="M -10 365 C 150 330, 280 400, 420 365 S 610 330, 660 355" fill="none" stroke="#22d3ee" stroke-width="1.5" opacity="0.14"/>
  <g transform="translate(180, 200) scale(1)"><path d="M 0 -46 L 36 -30 V 8 Q 36 34 0 48 Q -36 34 -36 8 V -30 Z" fill="#6478ff" fill-opacity="0.14" stroke="#6478ff" stroke-width="2.5"/><path d="M -12 2 L -2 14 L 18 -10" fill="none" stroke="#22d3ee" stroke-width="4" stroke-linecap="round" stroke-linejoin="round"/></g>
  <ellipse cx="450" cy="181" rx="58" ry="19" fill="none" stroke="#6478ff" stroke-width="2.5" opacity="0.90"/>
  <ellipse cx="450" cy="195" rx="52" ry="17" fill="none" stroke="#6478ff" stroke-width="2.5" opacity="0.68"/>
  <ellipse cx="450" cy="209" rx="46" ry="15" fill="none" stroke="#6478ff" stroke-width="2.5" opacity="0.46"/>
  <g transform="translate(486, 159)"><rect x="-16" y="-6" width="32" height="24" rx="5" fill="#e70013" fill-opacity="0.9"/><path d="M -9 -6 v -7 a 9 9 0 0 1 18 0 v 7" fill="none" stroke="#e70013" stroke-width="5" stroke-linecap="round"/></g>
  <path d="M 228 200 C 290 200, 340 200, 388 198" fill="none" stroke="#6478ff" stroke-width="4" stroke-linecap="round" opacity="0.6"/>
  <text x="450" y="288" text-anchor="middle" font-family="ui-monospace, monospace" font-size="14" fill="#0f766e" opacity="0.9">TUN · 2004-63</text>
</svg>
